<svg width="95" height="95" viewBox="0 0 95 95" fill="none" xmlns="http://www.w3.org/2000/svg">
<circle cx="47.5" cy="47.5" r="47.5" fill="#5AB4B1"/>
<path d="M77 67.8559C66 63.5002 55.5 66.5 48 71.0002C41.5 66.5 29.5 62.5003 18 67.8559" stroke="white" stroke-width="3" stroke-linecap="round" stroke-linejoin="round"/>
<path d="M46.9393 63.0607C47.5251 63.6464 48.4749 63.6464 49.0607 63.0607L58.6066 53.5147C59.1924 52.9289 59.1924 51.9792 58.6066 51.3934C58.0208 50.8076 57.0711 50.8076 56.4853 51.3934L48 59.8787L39.5147 51.3934C38.9289 50.8076 37.9792 50.8076 37.3934 51.3934C36.8076 51.9792 36.8076 52.9289 37.3934 53.5147L46.9393 63.0607ZM49.5 36C49.5 35.1716 48.8284 34.5 48 34.5C47.1716 34.5 46.5 35.1716 46.5 36H49.5ZM49.5 62V49H46.5V62H49.5ZM49.5 49V36H46.5V49H49.5Z" fill="white"/>
</svg>
