<svg width="126" height="126" viewBox="0 0 126 126" fill="none" xmlns="http://www.w3.org/2000/svg">
<path d="M118.5 58.6699C121.833 60.5944 121.833 65.4056 118.5 67.3301L39 113.229C35.6667 115.154 31.5 112.748 31.5 108.899V17.1007C31.5 13.2517 35.6667 10.846 39 12.7705L118.5 58.6699Z" fill="#5AB4B1"/>
<path d="M50.465 84.23V45.98H68.645C70.745 45.98 72.575 46.31 74.135 46.97C75.725 47.63 77.045 48.53 78.095 49.67C79.175 50.81 79.985 52.145 80.525 53.675C81.065 55.175 81.335 56.78 81.335 58.49C81.335 60.2 81.095 61.805 80.615 63.305C80.135 64.805 79.385 66.155 78.365 67.355C77.375 68.525 76.1 69.515 74.54 70.325C73.01 71.105 71.195 71.615 69.095 71.855L60.005 72.935V82.34L50.465 84.23ZM67.07 63.8C68.51 63.65 69.65 63.185 70.49 62.405C71.36 61.625 71.795 60.515 71.795 59.075C71.795 57.665 71.36 56.54 70.49 55.7C69.65 54.83 68.51 54.395 67.07 54.395H60.005V64.52L67.07 63.8Z" fill="white"/>
</svg>
