<svg width="32" height="32" viewBox="0 0 32 32" fill="none" xmlns="http://www.w3.org/2000/svg">
<path d="M20.3327 10.6668C20.3327 13.0601 18.3926 15.0002 15.9993 15.0002C13.6061 15.0002 11.666 13.0601 11.666 10.6668C11.666 8.2736 13.6061 6.3335 15.9993 6.3335C18.3926 6.3335 20.3327 8.2736 20.3327 10.6668Z" stroke="white" stroke-width="2" stroke-linecap="round"/>
<path d="M6.85847 21.3783C7.7069 19.1009 10.0814 18 12.5117 18H19.4883C21.9186 18 24.2931 19.1009 25.1415 21.3783C25.5255 22.409 25.849 23.6354 25.9594 25.0002C26.004 25.5507 25.5523 26 25 26H7C6.44772 26 5.99602 25.5507 6.04055 25.0002C6.15095 23.6354 6.47449 22.409 6.85847 21.3783Z" stroke="white" stroke-width="2" stroke-linecap="round"/>
</svg>
